<svg version="1.1" id="Layer_1" xmlns="http://www.w3.org/2000/svg" xmlns:xlink="http://www.w3.org/1999/xlink" x="0px" y="0px"
	 width="100%" viewBox="0 0 659 900" enable-background="new 0 0 659 900" xml:space="preserve">
<path fill="#8A1D41" opacity="1.000000" stroke="none" 
	d="
M660.000000,776.000000 
	C660.000000,776.444458 660.000000,776.888916 659.604675,777.659424 
	C642.925781,773.588196 627.161377,768.018860 612.291260,759.800049 
	C589.639587,747.280334 568.907288,732.123779 549.115356,715.585266 
	C540.785461,708.624634 532.619019,701.468384 524.063477,694.131104 
	C517.892517,700.406738 511.886047,706.644775 505.718750,712.719360 
	C503.448639,714.955322 503.973633,716.496338 505.961975,718.535950 
	C509.312317,721.972717 512.469910,725.605225 515.592834,729.254456 
	C524.830933,740.049377 534.019714,750.886475 543.213745,761.719055 
	C550.268066,770.030579 557.254089,778.400391 564.358582,786.668640 
	C569.703857,792.889404 575.188782,798.990112 581.143738,805.748291 
	C584.115173,799.490356 586.689941,794.067871 589.918274,787.269043 
	C595.736206,817.447632 609.339294,843.089417 621.480713,869.532898 
	C599.294922,851.507812 571.606812,845.813477 545.573425,834.512207 
	C550.986145,831.257751 555.737000,828.401245 560.929504,825.279236 
	C533.069397,795.878052 505.344818,766.619934 477.434692,737.165955 
	C471.217987,742.682922 465.072784,748.136475 458.721344,753.773010 
	C477.010498,779.869019 492.719727,806.971069 505.397247,835.794617 
	C514.541992,856.585938 519.996277,878.175476 520.000000,901.000000 
	C519.555542,901.000000 519.111084,901.000000 518.457764,900.633606 
	C515.921692,895.713013 513.652527,891.127991 511.257599,886.609619 
	C498.238831,862.047302 482.718353,839.075684 466.181610,816.802490 
	C458.220215,806.079346 449.692230,795.746399 440.949646,785.644531 
	C435.229309,779.034790 428.714783,773.104431 422.460907,766.966675 
	C417.498016,762.095825 412.390808,757.371948 407.096954,752.344727 
	C422.432404,738.823608 437.674683,725.384583 453.196899,711.698792 
	C451.761169,709.866455 450.766113,708.371704 449.551636,707.083862 
	C442.713959,699.833374 435.880646,692.576233 428.884186,685.480713 
	C427.926910,684.509888 426.081085,684.054871 424.622467,683.999634 
	C417.438538,683.727661 409.862885,685.076477 403.138214,683.241455 
	C389.740417,679.585205 378.840393,671.105530 370.119873,660.402405 
	C362.979614,651.638794 358.413544,641.578003 361.044556,629.778564 
	C362.059509,625.226807 363.818512,620.840820 365.631714,615.143921 
	C363.751953,613.500061 360.886719,611.411377 358.525970,608.856506 
	C349.085144,598.639282 339.866669,588.215820 330.359985,578.061462 
	C329.381653,577.016479 326.612427,576.421692 325.377777,577.034912 
	C314.294769,582.538696 302.958038,587.700378 292.487305,594.231445 
	C273.449036,606.106506 254.966904,618.872009 236.226761,631.226562 
	C214.930511,645.266418 193.339127,658.360474 167.146164,661.643005 
	C155.598831,663.090088 144.315430,659.162048 137.064606,648.009949 
	C126.910538,632.392517 123.441177,614.580994 121.011642,596.503113 
	C120.265480,590.950989 119.827972,585.352112 118.923935,579.827820 
	C117.811684,573.031067 113.854782,571.419556 108.781334,575.817261 
	C104.688202,579.365234 101.379379,583.852478 97.154709,587.208008 
	C83.596031,597.977234 69.729797,608.358154 56.069965,619.001465 
	C47.894917,625.371216 38.500587,630.763733 36.312454,643.015137 
	C25.630085,628.318542 21.108276,613.153625 25.548286,595.827759 
	C30.966259,574.685730 43.357365,557.657471 57.682652,541.962769 
	C75.329231,522.629272 96.214836,507.179657 118.872322,494.238342 
	C124.191399,491.200226 130.488129,488.962433 136.538025,488.345032 
	C144.160355,487.567261 150.351471,490.757507 153.773087,502.377655 
	C157.622513,515.450745 159.929153,528.973694 163.044464,542.268677 
	C165.535645,552.900146 168.407303,563.406250 174.795029,572.551270 
	C178.061356,577.227539 180.015533,578.070374 184.393936,574.655273 
	C188.630173,571.350952 192.795090,567.542969 195.793045,563.140198 
	C204.963348,549.673035 213.557281,535.813354 222.625366,521.717834 
	C217.970703,517.565002 214.106445,513.352539 209.524200,510.175842 
	C196.937271,501.449707 184.687912,491.898834 171.117798,485.014465 
	C154.254227,476.459229 135.964478,470.766418 118.724640,462.887756 
	C100.392555,454.509888 82.415413,445.310730 64.581512,435.904755 
	C54.478519,430.576233 44.974247,424.112488 35.267105,418.200714 
	C34.548168,423.037170 33.812737,427.984589 33.077305,432.932007 
	C32.476963,432.980469 31.876617,433.028931 31.276274,433.077393 
	C28.491474,428.636292 25.466501,424.324463 22.988081,419.718506 
	C20.408966,414.925354 17.975052,409.985260 16.142935,404.871094 
	C8.875172,384.584045 4.957803,363.562439 2.921433,342.149261 
	C2.816760,341.048553 1.664512,340.047455 0.999997,339.000000 
	C1.000000,331.979034 1.000000,324.958099 1.346905,317.503540 
	C8.530672,325.282959 15.330154,333.527405 22.214510,341.700378 
	C29.664057,350.544342 36.854553,359.640289 44.773746,368.046265 
	C54.394382,378.258179 63.895817,388.803802 77.861000,394.827820 
	C72.638863,396.528015 67.893257,398.073059 62.375626,399.869446 
	C64.623970,401.928772 66.137039,403.689301 67.990822,404.948090 
	C76.307175,410.595367 84.504868,416.464172 93.145065,421.577667 
	C109.549507,431.286194 127.168961,438.192749 145.285385,444.183838 
	C168.132339,451.739319 190.656082,460.291077 213.201416,468.727936 
	C219.777985,471.189026 225.952316,474.725067 232.311035,477.768372 
	C232.729691,477.556061 233.148361,477.343719 233.567017,477.131378 
	C232.585556,474.790710 231.893600,472.262878 230.537323,470.164459 
	C229.298431,468.247650 227.278976,466.851624 225.708832,465.130005 
	C212.426239,450.565887 199.117310,436.025024 185.957047,421.350891 
	C184.004166,419.173340 182.260696,419.606598 179.865509,420.021790 
	C174.875366,420.886810 169.535751,422.519348 164.797089,421.565186 
	C145.201843,417.619415 131.006882,405.724487 120.562485,389.068329 
	C111.158356,374.071167 106.861694,357.441498 104.856308,340.024567 
	C104.459312,336.576599 103.428200,332.607147 101.282112,330.067535 
	C95.076385,322.723816 88.143875,315.995239 81.514526,309.008240 
	C75.802155,302.987701 69.999168,297.046570 64.477768,290.854950 
	C62.535835,288.677307 60.789639,286.037598 59.859528,283.301147 
	C57.437847,276.176392 58.805042,267.298462 69.394455,269.225830 
	C73.801781,270.028015 78.433617,272.543549 81.785492,275.580170 
	C88.623154,281.774750 94.662079,288.850983 101.617744,296.183594 
	C102.231316,294.034637 102.821808,292.725525 102.959084,291.370483 
	C104.671822,274.463776 105.333366,257.378479 108.246727,240.684875 
	C111.464340,222.247955 116.544586,204.120346 121.248085,185.970627 
	C122.294876,181.931335 124.868744,178.170242 127.242226,174.616837 
	C132.123123,167.309525 140.822937,167.320663 149.489426,175.124466 
	C166.610443,190.541245 183.525024,206.190857 200.351868,221.929260 
	C208.569580,229.615402 216.398697,237.717010 224.551025,245.816650 
	C225.028320,246.097351 225.358292,246.191971 225.688248,246.286575 
	C225.487198,245.834274 225.286148,245.381958 225.049744,244.554810 
	C223.327927,240.071671 221.584229,235.985825 219.964493,231.851410 
	C210.954102,208.851868 203.814331,185.436737 203.971588,160.374283 
	C204.004379,155.149628 202.793869,150.338181 200.421112,145.453903 
	C197.060104,138.535324 194.477493,131.127350 192.474579,123.683067 
	C188.105942,107.446198 186.557281,91.038918 189.849579,74.232956 
	C193.007477,58.112888 200.544525,44.528908 211.757202,32.890369 
	C215.512787,28.992142 220.138885,25.932560 224.657059,22.253496 
	C225.153748,31.856827 225.020340,40.357536 226.205658,48.670200 
	C227.144592,55.254917 228.799438,62.060097 231.751404,67.959206 
	C236.120224,76.689705 235.710495,75.503540 243.275558,71.185760 
	C254.227844,64.934715 265.550171,59.713394 278.207397,57.929974 
	C282.059174,57.387253 287.045319,57.803940 289.483459,55.568645 
	C299.142822,46.712975 304.889526,35.766857 302.095367,22.046837 
	C300.655823,14.978496 298.714539,8.012336 297.000000,1.000002 
	C299.700012,1.000000 302.400024,1.000000 305.479980,1.375542 
	C307.765686,2.597275 309.643036,3.515444 311.581421,4.278727 
	C335.857666,13.838147 352.504791,30.057905 357.043152,56.678093 
	C358.431488,64.821556 358.481262,72.942139 366.695526,78.586739 
	C372.969360,82.897949 377.805847,89.300896 383.171936,94.663666 
	C396.355438,88.523224 408.442047,93.404167 410.431885,101.683502 
	C406.520416,103.670265 402.601929,105.309700 399.078491,107.566025 
	C396.459625,109.243042 395.985291,111.502831 397.998016,114.689934 
	C405.071381,125.890480 411.186218,137.623383 414.285309,150.630203 
	C416.336365,159.238327 418.005249,167.937500 419.861908,176.674347 
	C436.696991,178.528687 448.234009,188.089630 455.808746,202.715912 
	C460.404877,211.590744 462.109863,221.304688 463.185577,231.278809 
	C465.006866,248.166214 463.979523,264.618225 458.128021,280.608673 
	C455.863129,286.798035 452.766113,292.697327 450.750854,298.955078 
	C450.125519,300.896912 451.054382,304.724609 452.572052,305.734192 
	C459.564117,310.385376 461.872681,317.569153 463.935822,324.863525 
	C468.651642,341.536530 469.450409,358.758240 469.881866,375.910522 
	C470.384583,395.896088 469.999237,415.903992 469.999237,435.902222 
	C469.999237,437.823212 469.999268,439.744232 469.999268,440.865173 
	C478.899780,441.267059 486.988312,441.201019 494.973724,442.076080 
	C516.372864,444.421021 529.014648,457.563995 530.047974,479.209381 
	C530.805176,495.070068 531.603333,510.951141 533.217285,526.737854 
	C533.887756,533.295532 536.729431,539.631226 538.715820,546.526062 
	C542.341614,528.922302 545.016785,512.124023 549.377747,495.775391 
	C554.253540,477.496765 562.545166,460.618530 573.994446,445.313293 
	C580.383179,436.773010 586.543640,427.904663 591.464233,418.482941 
	C594.380920,412.898163 594.683594,405.948212 596.256104,399.207153 
	C602.679504,402.169098 607.722900,407.370300 612.001831,413.201447 
	C623.993896,429.543884 628.132935,448.564392 628.795776,468.247986 
	C629.217712,480.778168 628.036377,493.407440 626.912415,505.932892 
	C625.581970,520.759338 620.816345,534.637451 613.061768,547.367981 
	C606.193542,558.643311 599.585815,569.813660 596.272400,582.957214 
	C592.202942,599.099915 586.941772,615.049622 577.007080,628.822266 
	C572.102478,635.621643 566.589661,642.248413 556.950623,640.823547 
	C552.135803,640.111877 547.300964,638.423584 542.886108,636.316040 
	C526.177368,628.339844 512.624084,616.402893 500.711121,602.326233 
	C488.693390,588.125732 479.705231,572.314697 473.894196,554.701111 
	C471.542908,547.574036 469.644989,540.297424 467.445709,532.763245 
	C465.928650,542.943665 464.314148,552.696838 463.053162,562.495544 
	C461.200806,576.890198 459.417816,591.298645 457.944153,605.735840 
	C456.418396,620.683228 456.293976,635.851135 453.647003,650.579407 
	C451.894379,660.331482 456.388306,665.325195 462.336212,670.989807 
	C468.052063,676.433411 473.150146,682.525635 477.620819,687.360718 
	C492.208069,673.699219 506.239685,660.558044 520.361755,647.332153 
	C527.193787,653.683899 534.241577,660.208374 541.258240,666.766113 
	C551.806702,676.624573 562.320435,686.520203 572.872314,696.375061 
	C587.665527,710.191101 602.497803,723.965393 617.279846,737.793396 
	C628.553589,748.339539 639.714783,759.006836 651.064270,769.470398 
	C653.759033,771.954773 657.006653,773.839478 660.000000,776.000000 
M372.003845,380.954956 
	C372.003845,380.954956 371.987488,381.017273 372.589600,380.716766 
	C376.328186,375.417969 380.027161,370.090454 383.829498,364.837860 
	C384.975922,363.254181 386.226135,361.648865 387.738312,360.440979 
	C423.076538,332.213196 444.408783,296.025208 449.529144,250.857864 
	C451.056641,237.383545 450.342743,223.873932 445.113129,211.046066 
	C439.587494,197.492081 429.949493,191.554855 415.371796,192.491806 
	C413.415955,192.617523 411.463837,192.800659 409.034973,192.995255 
	C407.969269,168.306000 405.100372,144.390320 389.618744,123.705704 
	C384.999756,132.418320 385.113678,133.089981 391.485718,138.725983 
	C392.478851,139.604401 393.465088,140.548035 394.225891,141.623276 
	C406.115417,158.426727 409.126404,176.767548 401.921356,196.012573 
	C396.901215,209.421631 384.548737,210.834702 375.469482,199.786728 
	C369.598175,192.642288 366.862457,184.142792 365.010681,175.239685 
	C364.696289,173.728256 363.630280,171.842728 362.356720,171.149933 
	C355.602631,167.475845 352.089172,159.676773 353.953125,151.665314 
	C360.313843,155.644196 362.280029,154.858139 363.960052,147.213501 
	C366.771088,134.422562 369.400177,121.591614 372.367676,107.537415 
	C367.400543,105.885315 361.779327,103.192299 355.876495,102.234467 
	C345.573456,100.562637 337.762573,107.519951 337.969910,117.938347 
	C338.087433,123.847191 339.534119,129.729599 340.112915,135.892929 
	C340.112915,135.892929 339.845673,136.164032 339.221222,135.919678 
	C332.247070,129.451889 325.348877,122.989586 315.520050,120.884293 
	C290.384644,115.500397 266.342255,127.990593 255.988663,151.920334 
	C248.300507,169.689560 249.092850,187.969009 252.674393,206.380386 
	C255.212326,219.426895 260.409454,231.223663 270.661713,240.128967 
	C274.411438,243.386063 278.774841,245.936676 282.945679,248.871048 
	C258.447083,256.386200 249.650391,268.832001 250.949921,294.612152 
	C251.829483,312.061035 259.571106,326.657623 271.289459,339.106903 
	C288.459198,357.347534 308.414520,369.863037 334.850128,368.243561 
	C339.804840,367.940033 344.825287,368.881622 349.806274,368.783356 
	C354.138885,368.697906 355.582214,370.650238 354.776001,374.525970 
	C353.289673,381.671478 351.612000,388.777191 350.022064,395.863831 
	C353.067505,396.124298 355.310608,394.461639 356.796967,390.864777 
	C359.721313,383.787933 363.037872,376.873138 366.192139,369.891327 
	C366.812103,370.147675 367.432068,370.404053 368.052032,370.660431 
	C365.304077,377.742401 362.556122,384.824371 359.808136,391.906342 
	C360.091492,392.172821 360.374847,392.439301 360.658173,392.705780 
	C363.169647,389.495056 365.681122,386.284302 368.702026,383.327393 
	C369.475372,382.861359 370.248718,382.395325 371.513733,381.807037 
	C371.697571,381.529633 371.881439,381.252197 372.003845,380.954956 
M505.016510,859.363647 
	C505.150879,859.599182 505.285248,859.834778 505.419647,860.070374 
	C505.518433,859.971863 505.708435,859.792786 505.702850,859.786438 
	C505.468323,859.520874 505.216278,859.270874 505.086884,858.228027 
	C504.473297,856.164062 503.974945,854.057434 503.228973,852.042480 
	C490.589966,817.903076 471.884674,787.066711 451.499817,757.146973 
	C450.501862,755.682190 449.542480,754.191162 448.427826,752.504517 
	C458.277191,743.637573 467.780090,735.082581 477.780884,726.079285 
	C509.785736,759.823730 541.562683,793.327820 573.587769,827.093506 
	C570.195740,829.241150 567.380371,831.023682 564.022400,833.149719 
	C577.276672,838.323242 589.645203,843.151001 602.147705,848.248657 
	C602.189087,848.130493 602.230530,848.012390 602.271912,847.894226 
	C602.162170,847.957825 602.052368,848.021423 602.301819,847.371277 
	C597.421509,835.562683 592.541260,823.754089 587.500305,811.556702 
	C586.011963,814.544067 584.671021,817.235596 583.085144,820.418762 
	C552.603577,784.852600 522.714478,749.977783 493.259338,715.609253 
	C504.053070,704.815125 514.483337,694.384521 525.038696,683.828735 
	C555.306458,711.589417 587.085754,738.083923 625.013977,756.153381 
	C590.039795,723.477783 555.065613,690.802185 520.176453,658.205994 
	C506.108856,671.893311 492.298279,685.330627 478.345032,698.906677 
	C477.686554,698.285156 476.823364,697.532166 476.029572,696.711914 
	C463.286591,683.545898 450.423706,670.491821 437.901031,657.119263 
	C434.493042,653.479980 431.833801,653.876526 428.694641,656.770142 
	C427.353119,658.006653 426.181122,659.430176 424.960327,660.794006 
	C422.328613,663.734253 422.194794,666.351074 425.193451,669.417358 
	C431.713165,676.084290 437.945343,683.033325 444.263550,689.896057 
	C450.997894,697.210754 457.695953,704.558777 464.651184,712.155884 
	C449.174927,725.808777 434.137512,739.074524 418.930511,752.489868 
	C423.222015,756.527466 427.188080,760.081909 430.957642,763.833801 
	C458.387421,791.134094 481.075897,822.138184 501.807159,854.668762 
	C502.764404,856.170776 503.966675,857.516724 505.016510,859.363647 
M203.026718,368.701813 
	C206.141754,376.696289 204.847229,384.687469 202.138367,392.317291 
	C200.380264,397.269165 201.313858,400.255920 205.078323,403.799988 
	C212.317535,410.615356 218.903015,418.122437 225.815338,425.288879 
	C229.182785,428.780182 232.675568,432.150543 236.111633,435.575653 
	C236.749283,435.300201 237.386932,435.024750 238.024597,434.749329 
	C236.587280,423.331085 236.345978,411.604004 233.491684,400.551727 
	C224.400772,365.350586 210.381104,332.103729 189.816544,301.968231 
	C184.023621,293.479218 176.859344,285.834503 169.689896,278.415344 
	C166.166107,274.768799 162.838654,275.712585 160.991684,280.564301 
	C159.032745,285.710144 157.732895,291.253784 157.119980,296.732727 
	C156.037415,306.410004 155.588669,316.164490 155.085617,325.897583 
	C154.832108,330.802246 155.041351,335.730774 155.041351,341.000885 
	C159.165314,341.000885 162.520279,340.662903 165.778442,341.080353 
	C170.627640,341.701660 175.881470,341.892853 180.124664,343.975403 
	C190.492828,349.064148 198.100540,357.274658 203.026718,368.701813 
M325.441803,561.063538 
	C340.881897,577.787109 356.321960,594.510742 371.759430,611.231506 
	C376.534485,608.243591 380.854950,605.540039 385.380463,602.708252 
	C384.755676,601.888428 384.329681,601.199768 383.781250,600.628723 
	C367.057770,583.214233 350.322998,565.810547 333.588440,548.406738 
	C299.888580,513.359131 266.181671,478.318359 232.490295,443.262634 
	C217.145523,427.296448 201.773346,411.355682 186.558487,395.266388 
	C184.005493,392.566650 181.826996,391.949768 178.945831,394.316559 
	C175.367798,397.255829 176.157059,399.636139 179.137085,402.850220 
	C227.813736,455.350128 276.363770,507.967438 325.441803,561.063538 
M404.595459,589.973572 
	C412.031586,575.880676 412.308746,560.724304 411.839294,544.113281 
	C393.434387,550.279053 375.961182,556.132629 357.842834,562.202393 
	C370.065826,574.925171 381.539673,586.868164 393.982727,599.820007 
	C397.610321,596.520935 400.881653,593.545837 404.595459,589.973572 
M373.918274,188.541779 
	C374.992432,190.456009 376.066620,192.370239 377.070068,194.158463 
	C377.485962,189.420761 377.881592,184.914032 378.396667,179.046463 
	C381.065125,182.239258 382.574036,184.044662 384.296448,186.105545 
	C385.500366,183.224594 386.415863,181.033783 387.487854,178.468552 
	C393.334961,185.810455 393.952026,193.435547 390.752441,201.973450 
	C398.262177,197.542465 401.840546,188.057343 400.854950,174.385208 
	C399.885406,160.935822 396.876495,148.202072 384.427460,138.996521 
	C383.089539,143.754776 382.274567,147.809219 380.805084,151.610641 
	C378.547211,157.451691 376.902161,164.030670 372.997681,168.580902 
	C369.678192,172.449432 369.392426,175.325439 370.755432,179.370712 
	C371.708160,182.198257 372.662354,185.025314 373.918274,188.541779 
M74.532784,289.966064 
	C83.650558,299.611603 92.768341,309.257172 101.886116,318.902710 
	C102.357040,318.636169 102.827965,318.369629 103.298889,318.103088 
	C102.614098,314.455597 103.133354,309.761688 101.032761,307.344635 
	C92.654816,297.704529 83.571564,288.661652 74.477882,279.672333 
	C72.628952,277.844635 69.603386,277.207245 66.093475,275.530670 
	C66.621811,282.779846 70.924438,285.757233 74.532784,289.966064 
M410.987396,441.641693 
	C410.487091,436.691254 409.986786,431.740814 409.460205,426.530334 
	C400.129120,434.279266 393.191162,446.466248 393.530945,454.778076 
	C397.385986,453.530426 401.028656,452.018951 404.821014,451.206909 
	C409.756195,450.150208 411.880859,447.534943 410.987396,441.641693 
M626.498047,757.531677 
	C626.498047,757.531677 626.357300,757.601013 626.498047,757.531677 
z"/>
<path fill="#000000" opacity="1.000000" stroke="none" 
	d="
M0.999997,339.468658 
	C1.664512,340.047455 2.816760,341.048553 2.921433,342.149261 
	C4.957803,363.562439 8.875172,384.584045 16.142935,404.871094 
	C17.975052,409.985260 20.408966,414.925354 22.988081,419.718506 
	C25.466501,424.324463 28.491474,428.636292 31.276274,433.077393 
	C31.876617,433.028931 32.476963,432.980469 33.077305,432.932007 
	C33.812737,427.984589 34.548168,423.037170 35.267105,418.200714 
	C44.974247,424.112488 54.478519,430.576233 64.581512,435.904755 
	C82.415413,445.310730 100.392555,454.509888 118.724640,462.887756 
	C135.964478,470.766418 154.254227,476.459229 171.117798,485.014465 
	C184.687912,491.898834 196.937271,501.449707 209.524200,510.175842 
	C214.106445,513.352539 217.970703,517.565002 222.625366,521.717834 
	C213.557281,535.813354 204.963348,549.673035 195.793045,563.140198 
	C192.795090,567.542969 188.630173,571.350952 184.393936,574.655273 
	C180.015533,578.070374 178.061356,577.227539 174.795029,572.551270 
	C168.407303,563.406250 165.535645,552.900146 163.044464,542.268677 
	C159.929153,528.973694 157.622513,515.450745 153.773087,502.377655 
	C150.351471,490.757507 144.160355,487.567261 136.538025,488.345032 
	C130.488129,488.962433 124.191399,491.200226 118.872322,494.238342 
	C96.214836,507.179657 75.329231,522.629272 57.682652,541.962769 
	C43.357365,557.657471 30.966259,574.685730 25.548286,595.827759 
	C21.108276,613.153625 25.630085,628.318542 36.312454,643.015137 
	C38.500587,630.763733 47.894917,625.371216 56.069965,619.001465 
	C69.729797,608.358154 83.596031,597.977234 97.154709,587.208008 
	C101.379379,583.852478 104.688202,579.365234 108.781334,575.817261 
	C113.854782,571.419556 117.811684,573.031067 118.923935,579.827820 
	C119.827972,585.352112 120.265480,590.950989 121.011642,596.503113 
	C123.441177,614.580994 126.910538,632.392517 137.064606,648.009949 
	C144.315430,659.162048 155.598831,663.090088 167.146164,661.643005 
	C193.339127,658.360474 214.930511,645.266418 236.226761,631.226562 
	C254.966904,618.872009 273.449036,606.106506 292.487305,594.231445 
	C302.958038,587.700378 314.294769,582.538696 325.377777,577.034912 
	C326.612427,576.421692 329.381653,577.016479 330.359985,578.061462 
	C339.866669,588.215820 349.085144,598.639282 358.525970,608.856506 
	C360.886719,611.411377 363.751953,613.500061 365.631714,615.143921 
	C363.818512,620.840820 362.059509,625.226807 361.044556,629.778564 
	C358.413544,641.578003 362.979614,651.638794 370.119873,660.402405 
	C378.840393,671.105530 389.740417,679.585205 403.138214,683.241455 
	C409.862885,685.076477 417.438538,683.727661 424.622467,683.999634 
	C426.081085,684.054871 427.926910,684.509888 428.884186,685.480713 
	C435.880646,692.576233 442.713959,699.833374 449.551636,707.083862 
	C450.766113,708.371704 451.761169,709.866455 453.196899,711.698792 
	C437.674683,725.384583 422.432404,738.823608 407.096954,752.344727 
	C412.390808,757.371948 417.498016,762.095825 422.460907,766.966675 
	C428.714783,773.104431 435.229309,779.034790 440.949646,785.644531 
	C449.692230,795.746399 458.220215,806.079346 466.181610,816.802490 
	C482.718353,839.075684 498.238831,862.047302 511.257599,886.609619 
	C513.652527,891.127991 515.921692,895.713013 518.124451,900.633606 
	C345.736481,901.000000 173.472992,901.000000 1.000000,901.000000 
	C1.000000,713.979187 1.000000,526.958252 0.999997,339.468658 
z"/>
<path fill="#000000" opacity="1.000000" stroke="none" 
	d="
M660.000000,775.531372 
	C657.006653,773.839478 653.759033,771.954773 651.064270,769.470398 
	C639.714783,759.006836 628.553589,748.339539 617.279846,737.793396 
	C602.497803,723.965393 587.665527,710.191101 572.872314,696.375061 
	C562.320435,686.520203 551.806702,676.624573 541.258240,666.766113 
	C534.241577,660.208374 527.193787,653.683899 520.361755,647.332153 
	C506.239685,660.558044 492.208069,673.699219 477.620819,687.360718 
	C473.150146,682.525635 468.052063,676.433411 462.336212,670.989807 
	C456.388306,665.325195 451.894379,660.331482 453.647003,650.579407 
	C456.293976,635.851135 456.418396,620.683228 457.944153,605.735840 
	C459.417816,591.298645 461.200806,576.890198 463.053162,562.495544 
	C464.314148,552.696838 465.928650,542.943665 467.445709,532.763245 
	C469.644989,540.297424 471.542908,547.574036 473.894196,554.701111 
	C479.705231,572.314697 488.693390,588.125732 500.711121,602.326233 
	C512.624084,616.402893 526.177368,628.339844 542.886108,636.316040 
	C547.300964,638.423584 552.135803,640.111877 556.950623,640.823547 
	C566.589661,642.248413 572.102478,635.621643 577.007080,628.822266 
	C586.941772,615.049622 592.202942,599.099915 596.272400,582.957214 
	C599.585815,569.813660 606.193542,558.643311 613.061768,547.367981 
	C620.816345,534.637451 625.581970,520.759338 626.912415,505.932892 
	C628.036377,493.407440 629.217712,480.778168 628.795776,468.247986 
	C628.132935,448.564392 623.993896,429.543884 612.001831,413.201447 
	C607.722900,407.370300 602.679504,402.169098 596.256104,399.207153 
	C594.683594,405.948212 594.380920,412.898163 591.464233,418.482941 
	C586.543640,427.904663 580.383179,436.773010 573.994446,445.313293 
	C562.545166,460.618530 554.253540,477.496765 549.377747,495.775391 
	C545.016785,512.124023 542.341614,528.922302 538.715820,546.526062 
	C536.729431,539.631226 533.887756,533.295532 533.217285,526.737854 
	C531.603333,510.951141 530.805176,495.070068 530.047974,479.209381 
	C529.014648,457.563995 516.372864,444.421021 494.973724,442.076080 
	C486.988312,441.201019 478.899780,441.267059 469.999268,440.865173 
	C469.999268,439.744232 469.999237,437.823212 469.999237,435.902222 
	C469.999237,415.903992 470.384583,395.896088 469.881866,375.910522 
	C469.450409,358.758240 468.651642,341.536530 463.935822,324.863525 
	C461.872681,317.569153 459.564117,310.385376 452.572052,305.734192 
	C451.054382,304.724609 450.125519,300.896912 450.750854,298.955078 
	C452.766113,292.697327 455.863129,286.798035 458.128021,280.608673 
	C463.979523,264.618225 465.006866,248.166214 463.185577,231.278809 
	C462.109863,221.304688 460.404877,211.590744 455.808746,202.715912 
	C448.234009,188.089630 436.696991,178.528687 419.861908,176.674347 
	C418.005249,167.937500 416.336365,159.238327 414.285309,150.630203 
	C411.186218,137.623383 405.071381,125.890480 397.998016,114.689934 
	C395.985291,111.502831 396.459625,109.243042 399.078491,107.566025 
	C402.601929,105.309700 406.520416,103.670265 410.431885,101.683502 
	C408.442047,93.404167 396.355438,88.523224 383.171936,94.663666 
	C377.805847,89.300896 372.969360,82.897949 366.695526,78.586739 
	C358.481262,72.942139 358.431488,64.821556 357.043152,56.678093 
	C352.504791,30.057905 335.857666,13.838147 311.581421,4.278727 
	C309.643036,3.515444 307.765686,2.597275 305.929993,1.375542 
	C423.954285,1.000000 541.908569,1.000000 660.000000,1.000000 
	C660.000000,259.020874 660.000000,517.041809 660.000000,775.531372 
M605.093811,640.982422 
	C605.546631,641.669617 605.988098,642.364563 606.454041,643.042725 
	C609.884338,648.035583 616.460938,650.328064 622.631836,648.687866 
	C628.052490,647.247070 632.430176,642.204895 632.976868,636.772766 
	C633.736328,629.226379 631.169617,623.610840 625.182983,621.161926 
	C619.532043,618.850403 613.567627,618.843750 608.776489,622.957153 
	C603.463928,627.518311 602.723328,633.662598 605.093811,640.982422 
z"/>
<path fill="#000000" opacity="1.000000" stroke="none" 
	d="
M296.531311,1.000002 
	C298.714539,8.012336 300.655823,14.978496 302.095367,22.046837 
	C304.889526,35.766857 299.142822,46.712975 289.483459,55.568645 
	C287.045319,57.803940 282.059174,57.387253 278.207397,57.929974 
	C265.550171,59.713394 254.227844,64.934715 243.275558,71.185760 
	C235.710495,75.503540 236.120224,76.689705 231.751404,67.959206 
	C228.799438,62.060097 227.144592,55.254917 226.205658,48.670200 
	C225.020340,40.357536 225.153748,31.856827 224.657059,22.253496 
	C220.138885,25.932560 215.512787,28.992142 211.757202,32.890369 
	C200.544525,44.528908 193.007477,58.112888 189.849579,74.232956 
	C186.557281,91.038918 188.105942,107.446198 192.474579,123.683067 
	C194.477493,131.127350 197.060104,138.535324 200.421112,145.453903 
	C202.793869,150.338181 204.004379,155.149628 203.971588,160.374283 
	C203.814331,185.436737 210.954102,208.851868 219.964493,231.851410 
	C221.584229,235.985825 223.327927,240.071671 224.869278,244.720200 
	C224.724152,245.260452 224.403702,245.630569 224.403702,245.630569 
	C216.398697,237.717010 208.569580,229.615402 200.351868,221.929260 
	C183.525024,206.190857 166.610443,190.541245 149.489426,175.124466 
	C140.822937,167.320663 132.123123,167.309525 127.242226,174.616837 
	C124.868744,178.170242 122.294876,181.931335 121.248085,185.970627 
	C116.544586,204.120346 111.464340,222.247955 108.246727,240.684875 
	C105.333366,257.378479 104.671822,274.463776 102.959084,291.370483 
	C102.821808,292.725525 102.231316,294.034637 101.617744,296.183594 
	C94.662079,288.850983 88.623154,281.774750 81.785492,275.580170 
	C78.433617,272.543549 73.801781,270.028015 69.394455,269.225830 
	C58.805042,267.298462 57.437847,276.176392 59.859528,283.301147 
	C60.789639,286.037598 62.535835,288.677307 64.477768,290.854950 
	C69.999168,297.046570 75.802155,302.987701 81.514526,309.008240 
	C88.143875,315.995239 95.076385,322.723816 101.282112,330.067535 
	C103.428200,332.607147 104.459312,336.576599 104.856308,340.024567 
	C106.861694,357.441498 111.158356,374.071167 120.562485,389.068329 
	C131.006882,405.724487 145.201843,417.619415 164.797089,421.565186 
	C169.535751,422.519348 174.875366,420.886810 179.865509,420.021790 
	C182.260696,419.606598 184.004166,419.173340 185.957047,421.350891 
	C199.117310,436.025024 212.426239,450.565887 225.708832,465.130005 
	C227.278976,466.851624 229.298431,468.247650 230.537323,470.164459 
	C231.893600,472.262878 232.585556,474.790710 233.567017,477.131378 
	C233.148361,477.343719 232.729691,477.556061 232.311035,477.768372 
	C225.952316,474.725067 219.777985,471.189026 213.201416,468.727936 
	C190.656082,460.291077 168.132339,451.739319 145.285385,444.183838 
	C127.168961,438.192749 109.549507,431.286194 93.145065,421.577667 
	C84.504868,416.464172 76.307175,410.595367 67.990822,404.948090 
	C66.137039,403.689301 64.623970,401.928772 62.375626,399.869446 
	C67.893257,398.073059 72.638863,396.528015 77.861000,394.827820 
	C63.895817,388.803802 54.394382,378.258179 44.773746,368.046265 
	C36.854553,359.640289 29.664057,350.544342 22.214510,341.700378 
	C15.330154,333.527405 8.530672,325.282959 1.346905,317.034973 
	C1.000000,211.741989 1.000000,106.483978 1.000000,1.000000 
	C99.354111,1.000000 197.708405,1.000000 296.531311,1.000002 
z"/>
<path fill="#000000" opacity="1.000000" stroke="none" 
	d="
M520.468628,901.000000 
	C519.996277,878.175476 514.541992,856.585938 505.397247,835.794617 
	C492.719727,806.971069 477.010498,779.869019 458.721344,753.773010 
	C465.072784,748.136475 471.217987,742.682922 477.434692,737.165955 
	C505.344818,766.619934 533.069397,795.878052 560.929504,825.279236 
	C555.737000,828.401245 550.986145,831.257751 545.573425,834.512207 
	C571.606812,845.813477 599.294922,851.507812 621.480713,869.532898 
	C609.339294,843.089417 595.736206,817.447632 589.918274,787.269043 
	C586.689941,794.067871 584.115173,799.490356 581.143738,805.748291 
	C575.188782,798.990112 569.703857,792.889404 564.358582,786.668640 
	C557.254089,778.400391 550.268066,770.030579 543.213745,761.719055 
	C534.019714,750.886475 524.830933,740.049377 515.592834,729.254456 
	C512.469910,725.605225 509.312317,721.972717 505.961975,718.535950 
	C503.973633,716.496338 503.448639,714.955322 505.718750,712.719360 
	C511.886047,706.644775 517.892517,700.406738 524.063477,694.131104 
	C532.619019,701.468384 540.785461,708.624634 549.115356,715.585266 
	C568.907288,732.123779 589.639587,747.280334 612.291260,759.800049 
	C627.161377,768.018860 642.925781,773.588196 659.604675,777.992676 
	C660.000000,818.931702 660.000000,859.863403 660.000000,901.000000 
	C613.645996,901.000000 567.291626,901.000000 520.468628,901.000000 
z"/>
<path fill="#FDC326" opacity="1.000000" stroke="none" 
	d="
M368.192566,383.073547 
	C365.681122,386.284302 363.169647,389.495056 360.658173,392.705780 
	C360.374847,392.439301 360.091492,392.172821 359.808136,391.906342 
	C362.556122,384.824371 365.304077,377.742401 368.052032,370.660431 
	C367.432068,370.404053 366.812103,370.147675 366.192139,369.891327 
	C363.037872,376.873138 359.721313,383.787933 356.796967,390.864777 
	C355.310608,394.461639 353.067505,396.124298 350.022064,395.863831 
	C351.612000,388.777191 353.289673,381.671478 354.776001,374.525970 
	C355.582214,370.650238 354.138885,368.697906 349.806274,368.783356 
	C344.825287,368.881622 339.804840,367.940033 334.850128,368.243561 
	C308.414520,369.863037 288.459198,357.347534 271.289459,339.106903 
	C259.571106,326.657623 251.829483,312.061035 250.949921,294.612152 
	C249.650391,268.832001 258.447083,256.386200 282.945679,248.871048 
	C278.774841,245.936676 274.411438,243.386063 270.661713,240.128967 
	C260.409454,231.223663 255.212326,219.426895 252.674393,206.380386 
	C249.092850,187.969009 248.300507,169.689560 255.988663,151.920334 
	C266.342255,127.990593 290.384644,115.500397 315.520050,120.884293 
	C325.348877,122.989586 332.247070,129.451889 339.631622,136.262817 
	C340.155426,136.278595 340.268829,135.951248 340.382233,135.623901 
	C339.534119,129.729599 338.087433,123.847191 337.969910,117.938347 
	C337.762573,107.519951 345.573456,100.562637 355.876495,102.234467 
	C361.779327,103.192299 367.400543,105.885315 372.367676,107.537415 
	C369.400177,121.591614 366.771088,134.422562 363.960052,147.213501 
	C362.280029,154.858139 360.313843,155.644196 353.953125,151.665314 
	C352.089172,159.676773 355.602631,167.475845 362.356720,171.149933 
	C363.630280,171.842728 364.696289,173.728256 365.010681,175.239685 
	C366.862457,184.142792 369.598175,192.642288 375.469482,199.786728 
	C384.548737,210.834702 396.901215,209.421631 401.921356,196.012573 
	C409.126404,176.767548 406.115417,158.426727 394.225891,141.623276 
	C393.465088,140.548035 392.478851,139.604401 391.485718,138.725983 
	C385.113678,133.089981 384.999756,132.418320 389.618744,123.705704 
	C405.100372,144.390320 407.969269,168.306000 409.034973,192.995255 
	C411.463837,192.800659 413.415955,192.617523 415.371796,192.491806 
	C429.949493,191.554855 439.587494,197.492081 445.113129,211.046066 
	C450.342743,223.873932 451.056641,237.383545 449.529144,250.857864 
	C444.408783,296.025208 423.076538,332.213196 387.738312,360.440979 
	C386.226135,361.648865 384.975922,363.254181 383.829498,364.837860 
	C380.027161,370.090454 376.328186,375.417969 372.210205,380.486786 
	C373.291199,375.736847 374.751587,371.216858 376.211975,366.696869 
	C375.806519,366.548157 375.401062,366.399445 374.995605,366.250702 
	C372.727905,371.858307 370.460236,377.465942 368.192566,383.073547 
M351.341034,229.496201 
	C354.146362,224.946854 356.951721,220.397491 360.135590,215.234299 
	C348.777161,216.332718 347.320862,228.486526 339.128143,232.679565 
	C342.124908,232.753754 344.768097,232.135910 347.389435,231.436325 
	C348.954407,231.018661 350.485168,230.472870 352.122650,230.812119 
	C348.021301,242.920929 355.911682,248.420288 364.917084,253.305084 
	C364.797668,253.742554 364.678223,254.180023 364.558807,254.617493 
	C354.126434,254.064072 343.694092,253.510651 333.327271,252.960709 
	C333.317810,252.888672 333.263397,253.268143 333.420563,253.510300 
	C333.779236,254.062988 334.200836,254.589233 334.667755,255.055206 
	C345.283112,265.649139 358.442871,269.473022 372.978699,268.633698 
	C381.035431,268.168518 384.756348,263.398712 385.151367,255.160126 
	C385.250092,253.101425 385.697205,251.059418 385.984192,249.009735 
	C392.427002,258.957001 395.890625,260.784363 403.604767,257.933685 
	C415.712891,253.459259 426.480286,232.908783 423.318207,220.074295 
	C419.895081,226.731842 417.601715,234.251434 409.092041,237.212494 
	C409.739868,231.859818 410.603058,227.298676 410.771698,222.712006 
	C411.004974,216.367004 408.220306,212.289673 402.010315,211.194870 
	C395.843384,210.107635 389.457367,210.221893 383.161713,209.934174 
	C381.536926,209.859924 379.890686,210.254715 378.254303,210.434036 
	C381.226074,212.066650 384.138275,212.372589 387.005737,212.914795 
	C389.940094,213.469620 392.885498,214.081375 395.729828,214.974609 
	C403.326691,217.360336 405.920715,224.385971 400.788879,230.542664 
	C398.087067,233.784027 393.884766,236.781830 389.862030,237.694260 
	C382.652527,239.329529 375.072540,239.647659 367.635010,239.771301 
	C365.371582,239.808914 362.036011,237.935684 361.023529,235.986176 
	C359.501343,233.055069 361.089661,229.960159 363.995300,227.804993 
	C365.566376,226.639679 366.771271,224.980713 368.141388,223.544449 
	C367.886078,223.076416 367.630768,222.608368 367.375458,222.140320 
	C365.705200,222.312302 363.728180,221.972305 362.423340,222.754135 
	C358.798431,224.926025 355.453033,227.564407 351.341034,229.496201 
M298.520721,269.752197 
	C296.385376,269.455963 294.251740,268.923187 292.114319,268.907471 
	C285.469208,268.858551 283.089478,272.242889 285.191345,278.567352 
	C285.609100,279.824310 286.095245,281.098999 286.787933,282.218140 
	C298.466736,301.086884 312.140717,318.217773 331.173340,330.178314 
	C347.630096,340.520081 364.783630,340.873077 381.095062,330.217865 
	C406.714966,313.481995 421.398651,289.293640 426.814819,259.331635 
	C427.123810,257.622284 427.244995,255.878983 427.664429,252.405594 
	C431.189392,255.608261 433.597687,257.796356 435.952698,259.936005 
	C438.874054,251.115112 435.320221,238.267944 428.259399,233.974380 
	C427.032013,236.098633 425.773895,238.194611 424.592529,240.332993 
	C410.248322,266.298035 388.575256,280.231140 358.596008,280.086090 
	C338.315155,279.987976 318.472717,276.921204 298.520721,269.752197 
M299.529724,165.053848 
	C294.978333,171.059280 294.395599,177.903900 295.452240,185.027039 
	C297.258026,197.200485 302.205292,208.055557 310.353210,217.197998 
	C313.721161,220.977020 317.853119,224.440033 322.294128,226.823441 
	C332.175079,232.126373 341.432465,227.391449 342.809998,216.247574 
	C343.487610,210.765945 342.681671,205.005417 341.865265,199.471710 
	C341.401917,196.331268 340.898651,194.209167 343.978760,191.828659 
	C346.052521,190.225906 347.618683,186.848602 347.816376,184.148361 
	C348.381744,176.425018 344.784668,169.895309 341.257965,164.013672 
	C339.535065,167.449631 338.717957,172.057938 336.101440,173.586914 
	C332.340088,175.784897 329.801575,171.289536 327.326904,168.730209 
	C317.241272,158.299545 307.116791,147.868988 294.122528,140.989365 
	C282.595184,134.886368 269.881256,139.102890 263.794220,150.664169 
	C279.793091,147.291122 292.987732,152.318558 299.529724,165.053848 
M396.229340,334.752686 
	C380.724030,346.954803 364.042450,354.181580 343.889404,347.483734 
	C342.707672,347.090942 341.007141,348.259033 339.548035,348.700775 
	C340.283600,350.355835 340.558746,352.747803 341.831512,353.543030 
	C348.650177,357.803345 356.329529,360.236145 364.229004,358.577637 
	C379.995453,355.267487 393.329865,347.373291 403.659027,334.829132 
	C405.158722,333.007812 406.081451,330.711426 407.679504,327.922180 
	C401.473206,327.285187 400.182892,332.510620 396.229340,334.752686 
M296.951538,257.487274 
	C291.660187,257.326324 286.305847,256.585358 281.093475,257.151520 
	C274.608948,257.855896 269.913391,261.822571 268.484894,268.342346 
	C266.238159,278.596680 269.201111,287.734894 275.679535,295.815643 
	C275.861755,296.042908 276.575226,295.844330 277.411407,295.844330 
	C276.856293,286.774109 274.657166,277.348694 281.598389,269.705536 
	C288.518738,262.085358 298.317871,263.138397 307.456329,262.331604 
	C307.536102,261.729095 307.615845,261.126587 307.695618,260.524109 
	C304.387665,259.581573 301.079742,258.639038 296.951538,257.487274 
z"/>
<path fill="#FCC326" opacity="1.000000" stroke="none" 
	d="
M602.013733,847.978760 
	C589.645203,843.151001 577.276672,838.323242 564.022400,833.149719 
	C567.380371,831.023682 570.195740,829.241150 573.587769,827.093506 
	C541.562683,793.327820 509.785736,759.823730 477.780884,726.079285 
	C467.780090,735.082581 458.277191,743.637573 448.427826,752.504517 
	C449.542480,754.191162 450.501862,755.682190 451.499817,757.146973 
	C471.884674,787.066711 490.589966,817.903076 503.228973,852.042480 
	C503.974945,854.057434 504.473297,856.164062 505.049377,858.603271 
	C505.011871,858.978455 505.054840,858.935425 505.054871,858.935425 
	C503.966675,857.516724 502.764404,856.170776 501.807159,854.668762 
	C481.075897,822.138184 458.387421,791.134094 430.957642,763.833801 
	C427.188080,760.081909 423.222015,756.527466 418.930511,752.489868 
	C434.137512,739.074524 449.174927,725.808777 464.651184,712.155884 
	C457.695953,704.558777 450.997894,697.210754 444.263550,689.896057 
	C437.945343,683.033325 431.713165,676.084290 425.193451,669.417358 
	C422.194794,666.351074 422.328613,663.734253 424.960327,660.794006 
	C426.181122,659.430176 427.353119,658.006653 428.694641,656.770142 
	C431.833801,653.876526 434.493042,653.479980 437.901031,657.119263 
	C450.423706,670.491821 463.286591,683.545898 476.029572,696.711914 
	C476.823364,697.532166 477.686554,698.285156 478.345032,698.906677 
	C492.298279,685.330627 506.108856,671.893311 520.176453,658.205994 
	C555.065613,690.802185 590.039795,723.477783 625.013977,756.153381 
	C587.085754,738.083923 555.306458,711.589417 525.038696,683.828735 
	C514.483337,694.384521 504.053070,704.815125 493.259338,715.609253 
	C522.714478,749.977783 552.603577,784.852600 583.085144,820.418762 
	C584.671021,817.235596 586.011963,814.544067 587.500305,811.556702 
	C592.541260,823.754089 597.421509,835.562683 602.138977,847.700928 
	C601.976135,848.030518 602.013733,847.978760 602.013733,847.978760 
z"/>
<path fill="#000000" opacity="1.000000" stroke="none" 
	d="
M202.960571,368.309265 
	C198.100540,357.274658 190.492828,349.064148 180.124664,343.975403 
	C175.881470,341.892853 170.627640,341.701660 165.778442,341.080353 
	C162.520279,340.662903 159.165314,341.000885 155.041351,341.000885 
	C155.041351,335.730774 154.832108,330.802246 155.085617,325.897583 
	C155.588669,316.164490 156.037415,306.410004 157.119980,296.732727 
	C157.732895,291.253784 159.032745,285.710144 160.991684,280.564301 
	C162.838654,275.712585 166.166107,274.768799 169.689896,278.415344 
	C176.859344,285.834503 184.023621,293.479218 189.816544,301.968231 
	C210.381104,332.103729 224.400772,365.350586 233.491684,400.551727 
	C236.345978,411.604004 236.587280,423.331085 238.024597,434.749329 
	C237.386932,435.024750 236.749283,435.300201 236.111633,435.575653 
	C232.675568,432.150543 229.182785,428.780182 225.815338,425.288879 
	C218.903015,418.122437 212.317535,410.615356 205.078323,403.799988 
	C201.313858,400.255920 200.380264,397.269165 202.138367,392.317291 
	C204.847229,384.687469 206.141754,376.696289 202.960571,368.309265 
z"/>
<path fill="#FCC227" opacity="1.000000" stroke="none" 
	d="
M325.192078,560.810913 
	C276.363770,507.967438 227.813736,455.350128 179.137085,402.850220 
	C176.157059,399.636139 175.367798,397.255829 178.945831,394.316559 
	C181.826996,391.949768 184.005493,392.566650 186.558487,395.266388 
	C201.773346,411.355682 217.145523,427.296448 232.490295,443.262634 
	C266.181671,478.318359 299.888580,513.359131 333.588440,548.406738 
	C350.322998,565.810547 367.057770,583.214233 383.781250,600.628723 
	C384.329681,601.199768 384.755676,601.888428 385.380463,602.708252 
	C380.854950,605.540039 376.534485,608.243591 371.759430,611.231506 
	C356.321960,594.510742 340.881897,577.787109 325.192078,560.810913 
z"/>
<path fill="#000000" opacity="1.000000" stroke="none" 
	d="
M404.374207,590.272095 
	C400.881653,593.545837 397.610321,596.520935 393.982727,599.820007 
	C381.539673,586.868164 370.065826,574.925171 357.842834,562.202393 
	C375.961182,556.132629 393.434387,550.279053 411.839294,544.113281 
	C412.308746,560.724304 412.031586,575.880676 404.374207,590.272095 
z"/>
<path fill="#FCF9FA" opacity="1.000000" stroke="none" 
	d="
M373.767090,188.197174 
	C372.662354,185.025314 371.708160,182.198257 370.755432,179.370712 
	C369.392426,175.325439 369.678192,172.449432 372.997681,168.580902 
	C376.902161,164.030670 378.547211,157.451691 380.805084,151.610641 
	C382.274567,147.809219 383.089539,143.754776 384.427460,138.996521 
	C396.876495,148.202072 399.885406,160.935822 400.854950,174.385208 
	C401.840546,188.057343 398.262177,197.542465 390.752441,201.973450 
	C393.952026,193.435547 393.334961,185.810455 387.487854,178.468552 
	C386.415863,181.033783 385.500366,183.224594 384.296448,186.105545 
	C382.574036,184.044662 381.065125,182.239258 378.396667,179.046463 
	C377.881592,184.914032 377.485962,189.420761 377.070068,194.158463 
	C376.066620,192.370239 374.992432,190.456009 373.767090,188.197174 
z"/>
<path fill="#F8BD27" opacity="1.000000" stroke="none" 
	d="
M74.285309,289.712189 
	C70.924438,285.757233 66.621811,282.779846 66.093475,275.530670 
	C69.603386,277.207245 72.628952,277.844635 74.477882,279.672333 
	C83.571564,288.661652 92.654816,297.704529 101.032761,307.344635 
	C103.133354,309.761688 102.614098,314.455597 103.298889,318.103088 
	C102.827965,318.369629 102.357040,318.636169 101.886116,318.902710 
	C92.768341,309.257172 83.650558,299.611603 74.285309,289.712189 
z"/>
<path fill="#000000" opacity="1.000000" stroke="none" 
	d="
M410.992432,442.094391 
	C411.880859,447.534943 409.756195,450.150208 404.821014,451.206909 
	C401.028656,452.018951 397.385986,453.530426 393.530945,454.778076 
	C393.191162,446.466248 400.129120,434.279266 409.460205,426.530334 
	C409.986786,431.740814 410.487091,436.691254 410.992432,442.094391 
z"/>
<path fill="#9B353D" opacity="1.000000" stroke="none" 
	d="
M368.447296,383.200470 
	C370.460236,377.465942 372.727905,371.858307 374.995605,366.250702 
	C375.401062,366.399445 375.806519,366.548157 376.211975,366.696869 
	C374.751587,371.216858 373.291199,375.736847 371.909119,380.637024 
	C371.987488,381.017273 372.003845,380.954956 371.764008,380.970947 
	C371.356812,381.301086 371.189423,381.615173 371.022064,381.929291 
	C370.248718,382.395325 369.475372,382.861359 368.447296,383.200470 
z"/>
<path fill="#000000" opacity="1.000000" stroke="none" 
	d="
M224.904617,245.095062 
	C225.286148,245.381958 225.487198,245.834274 225.688248,246.286575 
	C225.358292,246.191971 225.028320,246.097351 224.551025,245.816650 
	C224.403702,245.630569 224.724152,245.260452 224.904617,245.095062 
z"/>
<path fill="#FCC326" opacity="1.000000" stroke="none" 
	d="
M504.989166,858.998657 
	C505.216278,859.270874 505.468323,859.520874 505.702850,859.786438 
	C505.708435,859.792786 505.518433,859.971863 505.419617,860.070312 
	C505.285248,859.834778 505.150879,859.599182 505.035675,859.149536 
	C505.054840,858.935425 505.011871,858.978455 504.989166,858.998657 
z"/>
<path fill="#FDC326" opacity="1.000000" stroke="none" 
	d="
M371.267883,381.868164 
	C371.189423,381.615173 371.356812,381.301086 371.794739,380.980896 
	C371.881439,381.252197 371.697571,381.529633 371.267883,381.868164 
z"/>
<path fill="#FCC326" opacity="1.000000" stroke="none" 
	d="
M626.427673,757.566345 
	C626.357300,757.601013 626.498047,757.531677 626.427673,757.566345 
z"/>
<path fill="#FCC326" opacity="1.000000" stroke="none" 
	d="
M601.959351,848.057739 
	C602.052368,848.021423 602.162170,847.957825 602.271912,847.894226 
	C602.230530,848.012390 602.189087,848.130493 602.080688,848.113708 
	C602.013733,847.978760 601.976135,848.030518 601.959351,848.057739 
z"/>
<path fill="#8A1D41" opacity="1.000000" stroke="none" 
	d="
M605.024902,640.585632 
	C602.723328,633.662598 603.463928,627.518311 608.776489,622.957153 
	C613.567627,618.843750 619.532043,618.850403 625.182983,621.161926 
	C631.169617,623.610840 633.736328,629.226379 632.976868,636.772766 
	C632.430176,642.204895 628.052490,647.247070 622.631836,648.687866 
	C616.460938,650.328064 609.884338,648.035583 606.454041,643.042725 
	C605.988098,642.364563 605.546631,641.669617 605.024902,640.585632 
M613.389465,643.638428 
	C616.564453,644.105713 619.739441,644.572998 623.713074,645.157837 
	C621.002625,641.658325 619.241455,639.384460 617.066162,636.575867 
	C616.972290,640.178650 617.801025,643.765015 612.975708,642.127075 
	C612.975708,637.076538 612.975708,632.026062 612.975708,626.793884 
	C606.367676,629.291382 606.834839,639.151245 613.389465,643.638428 
M627.971497,638.072876 
	C629.926392,633.979980 628.876648,630.630676 625.782654,627.603821 
	C624.847412,630.810120 624.004089,633.701599 622.952881,637.305725 
	C623.445923,638.118835 624.467957,639.804260 625.671509,641.789001 
	C626.449280,640.609131 627.063232,639.677795 627.971497,638.072876 
z"/>
<path fill="#8D2142" opacity="1.000000" stroke="none" 
	d="
M298.928619,269.844696 
	C318.472717,276.921204 338.315155,279.987976 358.596008,280.086090 
	C388.575256,280.231140 410.248322,266.298035 424.592529,240.332993 
	C425.773895,238.194611 427.032013,236.098633 428.259399,233.974380 
	C435.320221,238.267944 438.874054,251.115112 435.952698,259.936005 
	C433.597687,257.796356 431.189392,255.608261 427.664429,252.405594 
	C427.244995,255.878983 427.123810,257.622284 426.814819,259.331635 
	C421.398651,289.293640 406.714966,313.481995 381.095062,330.217865 
	C364.783630,340.873077 347.630096,340.520081 331.173340,330.178314 
	C312.140717,318.217773 298.466736,301.086884 286.787933,282.218140 
	C286.095245,281.098999 285.609100,279.824310 285.191345,278.567352 
	C283.089478,272.242889 285.469208,268.858551 292.114319,268.907471 
	C294.251740,268.923187 296.385376,269.455963 298.928619,269.844696 
M360.164154,321.438690 
	C360.164154,311.174835 360.164154,300.910980 360.164154,290.679962 
	C349.521545,289.473907 339.422607,288.329437 329.003967,287.148743 
	C329.003967,297.130707 328.956940,306.759674 329.066162,316.386902 
	C329.079163,317.532562 329.614716,319.189392 330.466003,319.728912 
	C339.450256,325.422668 349.240021,328.233734 360.164154,327.991608 
	C360.164154,325.720276 360.164154,324.069458 360.164154,321.438690 
M366.156036,310.497864 
	C366.156036,316.115204 366.156036,321.732544 366.156036,327.760345 
	C377.649261,326.012268 385.523804,319.401031 392.682526,311.621948 
	C392.971558,311.307861 393.101959,310.737000 393.103210,310.285217 
	C393.127319,301.552765 393.121063,292.820190 393.121063,283.916504 
	C383.852264,286.473083 375.327301,288.824524 366.156036,291.354218 
	C366.156036,296.964417 366.156036,303.231873 366.156036,310.497864 
M323.006470,293.591766 
	C323.006470,290.986786 323.006470,288.381775 323.006470,286.082916 
	C316.582794,284.162262 310.775726,282.293304 304.882721,280.752899 
	C303.319672,280.344299 301.492584,280.945526 299.786774,281.083069 
	C300.000214,282.776215 299.645172,284.878082 300.520416,286.095367 
	C305.739136,293.353271 311.177277,300.457581 316.688690,307.498413 
	C318.342072,309.610596 320.465759,311.354584 323.006470,313.901184 
	C323.006470,306.778931 323.006470,300.673859 323.006470,293.591766 
M398.433685,299.700317 
	C398.532806,300.639740 398.631958,301.579132 398.876526,303.897095 
	C405.080627,293.516174 411.408600,284.684204 412.122467,273.097198 
	C403.141052,275.035248 398.432831,280.465149 398.432800,288.365448 
	C398.432770,291.861877 398.432953,295.358307 398.433685,299.700317 
z"/>
<path fill="#8D2242" opacity="1.000000" stroke="none" 
	d="
M299.707703,164.734818 
	C292.987732,152.318558 279.793091,147.291122 263.794220,150.664169 
	C269.881256,139.102890 282.595184,134.886368 294.122528,140.989365 
	C307.116791,147.868988 317.241272,158.299545 327.326904,168.730209 
	C329.801575,171.289536 332.340088,175.784897 336.101440,173.586914 
	C338.717957,172.057938 339.535065,167.449631 341.257965,164.013672 
	C344.784668,169.895309 348.381744,176.425018 347.816376,184.148361 
	C347.618683,186.848602 346.052521,190.225906 343.978760,191.828659 
	C340.898651,194.209167 341.401917,196.331268 341.865265,199.471710 
	C342.681671,205.005417 343.487610,210.765945 342.809998,216.247574 
	C341.432465,227.391449 332.175079,232.126373 322.294128,226.823441 
	C317.853119,224.440033 313.721161,220.977020 310.353210,217.197998 
	C302.205292,208.055557 297.258026,197.200485 295.452240,185.027039 
	C294.395599,177.903900 294.978333,171.059280 299.707703,164.734818 
M329.620819,197.127884 
	C332.037262,198.230804 334.453705,199.333710 336.964233,200.479568 
	C337.232239,196.999603 335.641815,195.599136 332.439758,194.038925 
	C327.040039,191.407928 321.755615,188.015930 317.396759,183.909927 
	C312.289337,179.098709 308.223450,173.181839 303.570343,167.581573 
	C299.465698,172.117889 299.378418,177.195663 299.940033,182.126175 
	C301.769379,198.187012 308.505554,211.711929 321.805450,221.372955 
	C327.253937,225.330734 331.588440,225.127701 335.898987,221.399948 
	C326.721527,217.753540 323.188538,210.561584 322.568573,200.680801 
	C325.165863,201.937500 327.118744,202.882385 329.536835,204.052383 
	C329.536835,201.561722 329.536835,199.741394 329.620819,197.127884 
z"/>
<path fill="#8D2140" opacity="1.000000" stroke="none" 
	d="
M351.997192,230.018463 
	C355.453033,227.564407 358.798431,224.926025 362.423340,222.754135 
	C363.728180,221.972305 365.705200,222.312302 367.375458,222.140320 
	C367.630768,222.608368 367.886078,223.076416 368.141388,223.544449 
	C366.771271,224.980713 365.566376,226.639679 363.995300,227.804993 
	C361.089661,229.960159 359.501343,233.055069 361.023529,235.986176 
	C362.036011,237.935684 365.371582,239.808914 367.635010,239.771301 
	C375.072540,239.647659 382.652527,239.329529 389.862030,237.694260 
	C393.884766,236.781830 398.087067,233.784027 400.788879,230.542664 
	C405.920715,224.385971 403.326691,217.360336 395.729828,214.974609 
	C392.885498,214.081375 389.940094,213.469620 387.005737,212.914795 
	C384.138275,212.372589 381.226074,212.066650 378.254303,210.434036 
	C379.890686,210.254715 381.536926,209.859924 383.161713,209.934174 
	C389.457367,210.221893 395.843384,210.107635 402.010315,211.194870 
	C408.220306,212.289673 411.004974,216.367004 410.771698,222.712006 
	C410.603058,227.298676 409.739868,231.859818 409.092041,237.212494 
	C417.601715,234.251434 419.895081,226.731842 423.318207,220.074295 
	C426.480286,232.908783 415.712891,253.459259 403.604767,257.933685 
	C395.890625,260.784363 392.427002,258.957001 385.984192,249.009735 
	C385.697205,251.059418 385.250092,253.101425 385.151367,255.160126 
	C384.756348,263.398712 381.035431,268.168518 372.978699,268.633698 
	C358.442871,269.473022 345.283112,265.649139 334.667755,255.055206 
	C334.200836,254.589233 333.779236,254.062988 333.420563,253.510300 
	C333.263397,253.268143 333.317810,252.888672 333.327271,252.960709 
	C343.694092,253.510651 354.126434,254.064072 364.558807,254.617493 
	C364.678223,254.180023 364.797668,253.742554 364.917084,253.305084 
	C355.911682,248.420288 348.021301,242.920929 352.055115,230.393982 
	C351.987579,229.975830 351.997192,230.018463 351.997192,230.018463 
z"/>
<path fill="#8E2340" opacity="1.000000" stroke="none" 
	d="
M396.498871,334.519104 
	C400.182892,332.510620 401.473206,327.285187 407.679504,327.922180 
	C406.081451,330.711426 405.158722,333.007812 403.659027,334.829132 
	C393.329865,347.373291 379.995453,355.267487 364.229004,358.577637 
	C356.329529,360.236145 348.650177,357.803345 341.831512,353.543030 
	C340.558746,352.747803 340.283600,350.355835 339.548035,348.700775 
	C341.007141,348.259033 342.707672,347.090942 343.889404,347.483734 
	C364.042450,354.181580 380.724030,346.954803 396.498871,334.519104 
z"/>
<path fill="#8F2440" opacity="1.000000" stroke="none" 
	d="
M297.361664,257.591888 
	C301.079742,258.639038 304.387665,259.581573 307.695618,260.524109 
	C307.615845,261.126587 307.536102,261.729095 307.456329,262.331604 
	C298.317871,263.138397 288.518738,262.085358 281.598389,269.705536 
	C274.657166,277.348694 276.856293,286.774109 277.411407,295.844330 
	C276.575226,295.844330 275.861755,296.042908 275.679535,295.815643 
	C269.201111,287.734894 266.238159,278.596680 268.484894,268.342346 
	C269.913391,261.822571 274.608948,257.855896 281.093475,257.151520 
	C286.305847,256.585358 291.660187,257.326324 297.361664,257.591888 
z"/>
<path fill="#91273F" opacity="1.000000" stroke="none" 
	d="
M352.009460,229.980255 
	C350.485168,230.472870 348.954407,231.018661 347.389435,231.436325 
	C344.768097,232.135910 342.124908,232.753754 339.128143,232.679565 
	C347.320862,228.486526 348.777161,216.332718 360.135590,215.234299 
	C356.951721,220.397491 354.146362,224.946854 351.669128,229.757324 
	C351.997192,230.018463 351.987579,229.975830 352.009460,229.980255 
z"/>
<path fill="#8A1D41" opacity="1.000000" stroke="none" 
	d="
M340.247559,135.758423 
	C340.268829,135.951248 340.155426,136.278595 339.943848,136.384979 
	C339.845673,136.164032 340.112915,135.892929 340.247559,135.758423 
z"/>
<path fill="#000000" opacity="1.000000" stroke="none" 
	d="
M612.977905,643.000549 
	C606.834839,639.151245 606.367676,629.291382 612.975708,626.793884 
	C612.975708,632.026062 612.975708,637.076538 612.964722,642.582275 
	C612.953674,643.037415 612.977905,643.000549 612.977905,643.000549 
z"/>
<path fill="#000000" opacity="1.000000" stroke="none" 
	d="
M627.824341,638.409668 
	C627.063232,639.677795 626.449280,640.609131 625.671509,641.789001 
	C624.467957,639.804260 623.445923,638.118835 622.952881,637.305725 
	C624.004089,633.701599 624.847412,630.810120 625.782654,627.603821 
	C628.876648,630.630676 629.926392,633.979980 627.824341,638.409668 
z"/>
<path fill="#000000" opacity="1.000000" stroke="none" 
	d="
M612.937256,643.053040 
	C617.801025,643.765015 616.972290,640.178650 617.066162,636.575867 
	C619.241455,639.384460 621.002625,641.658325 623.713074,645.157837 
	C619.739441,644.572998 616.564453,644.105713 613.183716,643.319458 
	C612.977905,643.000549 612.953674,643.037415 612.937256,643.053040 
z"/>
<path fill="#FEFDFD" opacity="1.000000" stroke="none" 
	d="
M360.164154,321.928650 
	C360.164154,324.069458 360.164154,325.720276 360.164154,327.991608 
	C349.240021,328.233734 339.450256,325.422668 330.466003,319.728912 
	C329.614716,319.189392 329.079163,317.532562 329.066162,316.386902 
	C328.956940,306.759674 329.003967,297.130707 329.003967,287.148743 
	C339.422607,288.329437 349.521545,289.473907 360.164154,290.679962 
	C360.164154,300.910980 360.164154,311.174835 360.164154,321.928650 
z"/>
<path fill="#FCF9FA" opacity="1.000000" stroke="none" 
	d="
M366.156036,309.998596 
	C366.156036,303.231873 366.156036,296.964417 366.156036,291.354218 
	C375.327301,288.824524 383.852264,286.473083 393.121063,283.916504 
	C393.121063,292.820190 393.127319,301.552765 393.103210,310.285217 
	C393.101959,310.737000 392.971558,311.307861 392.682526,311.621948 
	C385.523804,319.401031 377.649261,326.012268 366.156036,327.760345 
	C366.156036,321.732544 366.156036,316.115204 366.156036,309.998596 
z"/>
<path fill="#FCF9FA" opacity="1.000000" stroke="none" 
	d="
M323.006470,294.080292 
	C323.006470,300.673859 323.006470,306.778931 323.006470,313.901184 
	C320.465759,311.354584 318.342072,309.610596 316.688690,307.498413 
	C311.177277,300.457581 305.739136,293.353271 300.520416,286.095367 
	C299.645172,284.878082 300.000214,282.776215 299.786743,281.083069 
	C301.492584,280.945526 303.319672,280.344299 304.882721,280.752899 
	C310.775726,282.293304 316.582794,284.162262 323.006470,286.082916 
	C323.006470,288.381775 323.006470,290.986786 323.006470,294.080292 
z"/>
<path fill="#F6EDF0" opacity="1.000000" stroke="none" 
	d="
M398.433350,299.277527 
	C398.432953,295.358307 398.432770,291.861877 398.432800,288.365448 
	C398.432831,280.465149 403.141052,275.035248 412.122467,273.097198 
	C411.408600,284.684204 405.080627,293.516174 398.876526,303.897095 
	C398.631958,301.579132 398.532806,300.639740 398.433350,299.277527 
z"/>
<path fill="#FCF9FA" opacity="1.000000" stroke="none" 
	d="
M329.578827,197.524475 
	C329.536835,199.741394 329.536835,201.561722 329.536835,204.052383 
	C327.118744,202.882385 325.165863,201.937500 322.568573,200.680801 
	C323.188538,210.561584 326.721527,217.753540 335.898987,221.399948 
	C331.588440,225.127701 327.253937,225.330734 321.805450,221.372955 
	C308.505554,211.711929 301.769379,198.187012 299.940033,182.126175 
	C299.378418,177.195663 299.465698,172.117889 303.570343,167.581573 
	C308.223450,173.181839 312.289337,179.098709 317.396759,183.909927 
	C321.755615,188.015930 327.040039,191.407928 332.439758,194.038925 
	C335.641815,195.599136 337.232239,196.999603 336.964233,200.479568 
	C334.453705,199.333710 332.037262,198.230804 329.578827,197.524475 
z"/>
</svg>